# xmcd
#
# Track frame offsets: 
#        150
#        19950
#        37725
#        53312
#        67075
#        86225
#        103825
#        118512
#        136562
#        155462
#
# Disc length: 2280 seconds
#
# Revision: 1
# Processed by: cddbd v1.5.2PL0 Copyright (c) Steve Scherf et al.
# Submitted via: ExactAudioCopy v1.0b3
#
DISCID=7808e60a
DTITLE=林志颖 - 牽掛你的我
DYEAR=1993
DGENRE=Pop
TTITLE0=牽掛你的我
TTITLE1=懵懂少年心
TTITLE2=小心黑夜
TTITLE3=勇敢接受我的愛
TTITLE4=全新的愛
TTITLE5=就是這一天
TTITLE6=我有一顆熾熱的心
TTITLE7=彩色的歌
TTITLE8=戲夢
TTITLE9=童話短路
EXTD=
EXTT0=
EXTT1=
EXTT2=
EXTT3=
EXTT4=
EXTT5=
EXTT6=
EXTT7=
EXTT8=
EXTT9=
PLAYORDER=
